<?xml version="1.0" encoding="UTF-8"?>
<svg id="Layer_1" data-name="Layer 1" xmlns="http://www.w3.org/2000/svg" viewBox="0 0 439.19 269.6">
  <path d="M160.14,0c-1.51.09-2.97.28-4.38.53-22.79,4.16-35.97,28.58-41.12,39.77C76.43,116.74,38.21,193.17,0,269.6c9.18-1.74,23.85-5.78,38.91-16.1,9.55-6.54,16.45-13.68,21.17-19.44,4.87-10.23,9.75-20.47,14.62-30.7,24.25-50.94,48.51-101.87,72.76-152.81,34.76,73,69.52,146.01,104.28,219.01,3.49-3.02,12.72-11.81,16.33-26.62,4.28-17.56-2.27-31.62-4.16-35.37C229.33,138.38,194.74,69.19,160.14,0Z"/>
  <path d="M329.82,269.6c-1.51-.09-2.97-.28-4.38-.53-22.79-4.16-35.97-28.58-41.12-39.77C246.11,152.86,207.9,76.43,169.68,0c9.18,1.74,23.85,5.78,38.91,16.1,9.55,6.54,16.45,13.68,21.17,19.44,4.87,10.23,9.75,20.47,14.62,30.7,24.25,50.94,48.51,101.87,72.76,152.81C351.91,146.05,386.67,73.05,421.44.05c3.49,3.02,12.72,11.81,16.33,26.62,4.28,17.56-2.27,31.62-4.16,35.37-34.59,69.19-69.19,138.38-103.78,207.56h0Z"/>
  <path d="M100.1,165.42l12.6-26.47h69.37c-4.84,5.6-14.06,14.71-28.4,20.75-8.47,3.57-16.21,5-22.01,5.58-10.52.05-21.04.09-31.56.14Z"/>
</svg>