<?xml version="1.0" encoding="UTF-8"?>
<svg id="Lag_1" data-name="Lag 1" xmlns="http://www.w3.org/2000/svg" viewBox="0 0 748.6 523.1">
  <defs>
    <style>
      .cls-1 {
        fill: #fff;
        stroke: #999;
        stroke-miterlimit: 10;
        stroke-width: 40px;
      }
    </style>
  </defs>
  <path class="cls-1" d="M374.41,503.08c70.42,0,146.84,0,220.11,0,23.54.02,46.26.03,68.25-.07,13.84-.19,26.08-.17,38.92-2.46,15.1-2.54,22.94-11.17,24.96-27.35,1.63-11.7,1.73-22.83,1.86-35.29.18-87.54.05-185.68.03-272.07-.87-23.69,2.24-53.46-16.94-64.02-14.05-7.23-31.53-7.02-47.5-7.76-30.73-.76-63.03.07-94.63-.58-14.37-.41-29.78-1.5-43.1-5.69-11.67-3.6-20.28-8.88-27.44-14.92-10.88-9.3-19.43-20.03-30.94-28.95-26.92-22.07-54.88-24.13-89.07-23.87-38.79-.24-70.05-.55-100.8,25.96-21.39,18.35-31.56,36.58-61.59,43.37-12.51,3.09-26.7,3.86-39.96,4.16-27.22.44-55.95-.04-82.29.33-10.65.14-21.62.43-31.88,1.45-12.66,1.44-25.91,3.42-33.76,13.89-3.39,4.66-5.41,10.75-6.61,18.51-.87,5.62-1.33,12.11-1.58,19.48-.94,85.37-.1,202.12-.31,287.03-.03,11.43.26,23.45,1.22,33.72,1.37,12.92,3.83,23.21,14.57,28.98,8.78,4.22,19.58,5.12,30.53,5.62,8.91.35,18.62.5,28.13.5,85.75-.05,192.42.08,279.66.02"/>
  <circle class="cls-1" cx="374.3" cy="285.58" r="108.47"/>
</svg>